<mxfile host="app.diagrams.net" modified="2021-03-16T17:07:39.355Z" agent="5.0 (Macintosh; Intel Mac OS X 11_2_0) AppleWebKit/537.36 (KHTML, like Gecko) Chrome/89.0.4389.82 Safari/537.36" etag="Xzo3l5gGKj8hyldo47QL" version="14.3.1" type="github">
  <diagram id="n9qWUOam9ZF6OnrzucKD" name="Page-1">
    <mxGraphModel dx="2146" dy="954" grid="1" gridSize="10" guides="1" tooltips="1" connect="1" arrows="1" fold="1" page="1" pageScale="1" pageWidth="850" pageHeight="1100" math="0" shadow="0">
      <root>
        <mxCell id="0" />
        <mxCell id="1" parent="0" />
        <mxCell id="XBuRLawrK7IfiwdRNRbU-3" value="&lt;font style=&quot;font-size: 14px&quot;&gt;Post Request&lt;/font&gt;" style="rounded=1;whiteSpace=wrap;html=1;" vertex="1" parent="1">
          <mxGeometry x="90" y="130" width="120" height="60" as="geometry" />
        </mxCell>
        <mxCell id="XBuRLawrK7IfiwdRNRbU-6" value="&lt;font style=&quot;font-size: 14px&quot;&gt;User notified of failed post&lt;/font&gt;" style="rounded=1;whiteSpace=wrap;html=1;" vertex="1" parent="1">
          <mxGeometry x="620" y="200" width="120" height="60" as="geometry" />
        </mxCell>
        <mxCell id="XBuRLawrK7IfiwdRNRbU-7" value="&lt;font style=&quot;font-size: 14px&quot;&gt;view request&lt;/font&gt;" style="rounded=1;whiteSpace=wrap;html=1;" vertex="1" parent="1">
          <mxGeometry x="350" y="260" width="120" height="60" as="geometry" />
        </mxCell>
        <mxCell id="XBuRLawrK7IfiwdRNRbU-8" value="&lt;font style=&quot;font-size: 14px&quot;&gt;Hands Up&lt;/font&gt;" style="rounded=1;whiteSpace=wrap;html=1;" vertex="1" parent="1">
          <mxGeometry x="350" y="360" width="120" height="60" as="geometry" />
        </mxCell>
        <mxCell id="XBuRLawrK7IfiwdRNRbU-9" value="&lt;font style=&quot;font-size: 14px&quot;&gt;View hands on Request&lt;/font&gt;" style="rounded=1;whiteSpace=wrap;html=1;" vertex="1" parent="1">
          <mxGeometry x="90" y="470" width="120" height="60" as="geometry" />
        </mxCell>
        <mxCell id="XBuRLawrK7IfiwdRNRbU-10" value="&lt;font style=&quot;font-size: 14px&quot;&gt;Post Request&lt;/font&gt;" style="rounded=1;whiteSpace=wrap;html=1;" vertex="1" parent="1">
          <mxGeometry x="620" y="470" width="120" height="60" as="geometry" />
        </mxCell>
        <mxCell id="XBuRLawrK7IfiwdRNRbU-11" value="&lt;font style=&quot;font-size: 14px&quot;&gt;Post Request&lt;/font&gt;" style="rounded=1;whiteSpace=wrap;html=1;" vertex="1" parent="1">
          <mxGeometry x="620" y="580" width="120" height="60" as="geometry" />
        </mxCell>
        <mxCell id="XBuRLawrK7IfiwdRNRbU-12" value="&lt;font style=&quot;font-size: 14px&quot;&gt;Accept Hands: Confirm Booking&lt;/font&gt;" style="rounded=1;whiteSpace=wrap;html=1;" vertex="1" parent="1">
          <mxGeometry x="90" y="650" width="120" height="60" as="geometry" />
        </mxCell>
        <mxCell id="XBuRLawrK7IfiwdRNRbU-13" value="&lt;font style=&quot;font-size: 14px&quot;&gt;View Booking&lt;/font&gt;" style="rounded=1;whiteSpace=wrap;html=1;" vertex="1" parent="1">
          <mxGeometry x="90" y="820" width="120" height="60" as="geometry" />
        </mxCell>
        <mxCell id="XBuRLawrK7IfiwdRNRbU-14" value="&lt;font style=&quot;font-size: 14px&quot;&gt;View Booking&lt;/font&gt;" style="rounded=1;whiteSpace=wrap;html=1;" vertex="1" parent="1">
          <mxGeometry x="350" y="820" width="120" height="60" as="geometry" />
        </mxCell>
        <mxCell id="XBuRLawrK7IfiwdRNRbU-15" value="&lt;font style=&quot;font-size: 14px&quot;&gt;View Booking&lt;/font&gt;" style="rounded=1;whiteSpace=wrap;html=1;" vertex="1" parent="1">
          <mxGeometry x="620" y="820" width="120" height="60" as="geometry" />
        </mxCell>
        <mxCell id="XBuRLawrK7IfiwdRNRbU-16" value="" style="ellipse;whiteSpace=wrap;html=1;aspect=fixed;strokeColor=#363636;shadow=0;fillColor=#080808;" vertex="1" parent="1">
          <mxGeometry x="135" y="30" width="30" height="30" as="geometry" />
        </mxCell>
        <mxCell id="XBuRLawrK7IfiwdRNRbU-17" value="" style="ellipse;whiteSpace=wrap;html=1;aspect=fixed;shadow=0;strokeColor=#363636;fillColor=#080808;" vertex="1" parent="1">
          <mxGeometry x="125" y="980" width="50" height="50" as="geometry" />
        </mxCell>
        <mxCell id="XBuRLawrK7IfiwdRNRbU-20" value="" style="verticalLabelPosition=bottom;verticalAlign=top;html=1;shape=mxgraph.basic.rounded_frame;dx=10;shadow=1;strokeColor=#363636;fillColor=#FAFAFA;" vertex="1" parent="1">
          <mxGeometry x="125" y="980" width="50" height="50" as="geometry" />
        </mxCell>
        <mxCell id="XBuRLawrK7IfiwdRNRbU-21" value="" style="endArrow=classic;html=1;exitX=0.5;exitY=1;exitDx=0;exitDy=0;" edge="1" parent="1" source="XBuRLawrK7IfiwdRNRbU-16">
          <mxGeometry width="50" height="50" relative="1" as="geometry">
            <mxPoint x="400" y="420" as="sourcePoint" />
            <mxPoint x="150" y="130" as="targetPoint" />
          </mxGeometry>
        </mxCell>
      </root>
    </mxGraphModel>
  </diagram>
</mxfile>
